<svg id="Logo" xmlns="http://www.w3.org/2000/svg" viewBox="0 0 858.15 764.45"><defs><style>.cls-1{fill:#eac280;}</style></defs><title>portfolio_logo</title><path class="cls-1" d="M21.65,806.17l.16-1.62.18-1.44c.11-1,.26-1.87.39-2.81.29-1.84.6-3.67.95-5.47s.72-3.6,1.12-5.38.79-3.56,1.25-5.32c.87-3.53,1.85-7,2.85-10.49l1.59-5.18c.53-1.73,1.12-3.43,1.67-5.14a387.48,387.48,0,0,1,16-40,727.08,727.08,0,0,1,40.65-75.3C118.36,599.58,152.76,554.12,190,511.4c9.3-10.71,18.85-21.18,28.45-31.59l29-30.52q28.67-30.15,56.06-61.45C321.78,367,339.51,345.72,356.5,324s33.23-43.92,48.09-66.75c7.42-11.41,14.48-23,21-34.72a329.44,329.44,0,0,0,17.2-35.63c4.8-12,8.61-24.08,10.13-35.45a63.77,63.77,0,0,0,.33-15.88,32.12,32.12,0,0,0-3.82-12.26,25,25,0,0,0-3.48-4.7,29.33,29.33,0,0,0-4.8-4.12,43.79,43.79,0,0,0-12.88-6.32c-9.05-2.73-19.29-2.35-29.79.77s-21,8.8-30.87,16a181.85,181.85,0,0,0-27.69,25.5c-17.15,19.18-31.55,41.59-43.86,65.21a505.59,505.59,0,0,0-31,74.4c-16.93,51.45-27.38,105.38-33.26,159.84l-4.25,41.67-4.43,41.85c-3,27.89-6.15,55.78-9.48,83.66s-6.79,55.75-10.5,83.61-7.63,55.71-12.05,83.62l-1.7,10.49-.44,2.63-.11.66s-.16,1,0,.09A19.44,19.44,0,0,0,185.08,784a19.16,19.16,0,0,0-26.44-4c-4.2,2.22-7.48,10.16-6.39,7.83l.63-1.43,1.25-2.71c3.31-7,6.67-13.36,10.15-19.73,6.94-12.69,14.19-25,21.69-37.17,15-24.32,31-48,48.38-70.92,8.71-11.44,17.75-22.69,27.33-33.63a411.76,411.76,0,0,1,30.62-31.69c11-10.08,22.78-19.7,36.53-27.86a122.45,122.45,0,0,1,22.49-10.58,79.06,79.06,0,0,1,27.1-4.58,63.72,63.72,0,0,1,14.76,2,62.55,62.55,0,0,1,14,5.48,74,74,0,0,1,21.48,17.88,113.65,113.65,0,0,1,13.71,21.06,179.65,179.65,0,0,1,9.16,21.61,299.82,299.82,0,0,1,11.28,43.26c.7,3.6,1.31,7.19,1.92,10.78L466.33,680q1.55,9.88,3.67,19.54a220.56,220.56,0,0,0,11.4,37.11,125.3,125.3,0,0,0,18.49,31.76,78.27,78.27,0,0,0,26.86,21.37,84.88,84.88,0,0,0,34,7.77,142.31,142.31,0,0,0,37.37-4.27,243.37,243.37,0,0,0,37.37-12.5c24.6-10.37,48.27-23.94,71-39,5.71-3.79,11.31-7.67,17-11.68.7-.5,1.47-1,2.26-1.55l2.33-1.57c1.56-1,3.09-2.11,4.7-3.07l4.78-2.95c1.61-1,3.25-1.86,4.87-2.79a207.93,207.93,0,0,1,41.09-17.53,214.67,214.67,0,0,1,43.55-8.44,206.13,206.13,0,0,1,22.11-.75c3.69.06,7.39.28,11.09.58,1.85.14,3.71.35,5.57.57l2.82.38,1.44.22,1.6.27a9.56,9.56,0,0,1-1.75,19h-.78l-2.18,0h-2.41c-1.63,0-3.26.05-4.91.1-3.29.1-6.6.3-9.9.58-6.61.5-13.2,1.41-19.73,2.51a226,226,0,0,0-38.24,10c-6.18,2.23-12.22,4.77-18.14,7.55a194.65,194.65,0,0,0-17.28,9.18c-1.39.85-2.8,1.67-4.18,2.53l-4.09,2.67c-1.38.86-2.69,1.83-4,2.76l-2,1.4c-.66.46-1.33.93-2,1.46-5.64,4.14-11.46,8.36-17.33,12.44C699.29,782,674.52,797,647.76,809a274.33,274.33,0,0,1-41.88,15,174.16,174.16,0,0,1-45.72,6.14,124.43,124.43,0,0,1-23.94-2.46,110.77,110.77,0,0,1-23.46-7.55,112.14,112.14,0,0,1-39-29.66,159.45,159.45,0,0,1-24.5-40,255.44,255.44,0,0,1-14.07-42.8c-1.73-7.2-3.21-14.42-4.48-21.64l-1.77-10.27c-.61-3.3-1.21-6.6-1.89-9.86A263.91,263.91,0,0,0,416.71,628a142.89,142.89,0,0,0-7.42-16.94,76.64,76.64,0,0,0-9.28-14,36.77,36.77,0,0,0-10.6-8.83,24.56,24.56,0,0,0-11.56-2.82,41.44,41.44,0,0,0-14,2.68,84.74,84.74,0,0,0-15.34,7.48c-10.29,6.24-20.31,14.42-29.86,23.32a373.44,373.44,0,0,0-27.49,28.9c-8.79,10.19-17.23,20.82-25.39,31.72-16.32,21.8-31.6,44.64-45.88,68-7.12,11.69-14,23.55-20.46,35.46-3.19,5.93-6.34,12-9,17.63l-.94,2.06-.43,1c.93-1.92-2.55,6.43-7.12,8.9a20.88,20.88,0,0,1-32.81-19.85l.29-1.84.42-2.55,1.63-10.24c4.25-27.4,8-55,11.63-82.66s6.94-55.35,10.15-83.08,6.21-55.49,9.16-83.26l4.27-41.68,4.19-41.89c3-28.42,7.26-56.77,13-84.91a721.94,721.94,0,0,1,22-83.53,546.62,546.62,0,0,1,33.6-80.47,400.9,400.9,0,0,1,22.46-38.08A314,314,0,0,1,309.34,123a222.47,222.47,0,0,1,34.12-31.13c12.75-9.23,27.1-17.26,43.5-22.09a100.91,100.91,0,0,1,25.9-4.11A85.83,85.83,0,0,1,440,69.34a84.41,84.41,0,0,1,24.6,12.19A66.91,66.91,0,0,1,490.31,117a79,79,0,0,1,2.86,13.86,103.54,103.54,0,0,1-.54,26c-2.34,16.4-7.26,31.12-13,45.07a368.55,368.55,0,0,1-19.59,39.81c-7.15,12.72-14.79,25-22.73,37-15.89,24-33,46.83-50.62,69.08s-36,43.84-54.8,65-38,41.85-57.65,62.15l-14.79,15.09L245,504.93c-9.53,10-19.11,20-28.38,30.24-37.31,40.75-72.69,83.28-104,128.63A700.58,700.58,0,0,0,70,734.22q-9.49,18.21-17.65,37c-.67,1.56-1.38,3.12-2,4.68l-1.94,4.71c-1.27,3.14-2.56,6.28-3.72,9.45l-.9,2.37-.86,2.37c-.59,1.58-1.12,3.17-1.66,4.75s-1.06,3.16-1.55,4.72c-.24.78-.5,1.57-.72,2.33l-.33,1.13c-.1.33-.22.79-.29,1L37.84,810a8.39,8.39,0,0,1-16.19-3.82Z" transform="translate(-21.61 -65.66)"/></svg>